<svg xmlns="http://www.w3.org/2000/svg" xmlns:xlink="http://www.w3.org/1999/xlink" version="1.1" x="0px" y="0px" viewBox="0 0 100 100" style="enable-background:new 0 0 100 100;" xml:space="preserve"><style type="text/css">
	.st0{fill-rule:evenodd;clip-rule:evenodd;}
	.st1{fill:#D8D5CA;}
</style><g><g><path d="M94.2,21.6h-8.9v-1.3c0-3.2-2.6-5.9-5.9-5.9s-5.9,2.6-5.9,5.9v1.3h-8.9c-2.5,0-4.6,2-4.6,4.6s2,4.6,4.6,4.6h8.9v4    c0,0.3,0,0.6,0,0.9c-4.2-0.5-6.6-1.5-9-2.7c-3.3-1.5-6.8-3.1-14.6-3.1c0,0,0,0,0,0l-0.1,0c-7.8,0-11.2,1.6-14.5,3.1    c-2.5,1.1-4.8,2.2-9,2.7c0-0.3,0-0.6,0-0.9v-4h8.9c2.5,0,4.6-2,4.6-4.6s-2-4.6-4.6-4.6h-8.9v-1.3c0-3.2-2.6-5.9-5.9-5.9    s-5.9,2.6-5.9,5.9v1.3H5.8c-2.5,0-4.6,2-4.6,4.6s2,4.6,4.6,4.6h8.9v4c0,8,2.3,13,5.9,13c1,0,2.7-0.4,4-2.9l8.3,0    C34,45,40,48.7,40.4,56c0.4,4.4,2.4,4.7,4.9,4.7c0,0,0,0,0,0h9.5c0,0,0,0,0,0c2.4,0,4.4-0.4,4.8-4.8C60,48.7,66,45,67.1,44.8h8.4    c1.3,2.5,3.1,2.9,4,2.9c3.6,0,5.9-5,5.9-13v-4h8.9c2.5,0,4.6-2,4.6-4.6S96.8,21.6,94.2,21.6z M79.5,17.4c1.1,0,2.1,0.7,2.6,1.6    h-5.2C77.4,18.1,78.4,17.4,79.5,17.4z M20.5,17.4c1.1,0,2.1,0.7,2.6,1.6h-5.2C18.4,18.1,19.4,17.4,20.5,17.4z M4.2,26.2    c0-0.9,0.7-1.6,1.6-1.6h29.5c0.9,0,1.6,0.7,1.6,1.6s-0.7,1.6-1.6,1.6H5.8C4.9,27.7,4.2,27,4.2,26.2z M82.4,34.7c0,7.5-2,10-2.9,10    c-0.5,0-1.2-0.8-1.7-2l-0.4-0.9H67.1c-2.4,0-9.9,4.9-10.5,13.9c-0.2,2-0.3,2-1.8,2c0,0,0,0-0.1,0h-9.5c-1.6,0-1.6,0-1.8-2    c-0.6-9-8.1-13.9-10.5-13.9H22.6l-0.4,0.9c-0.5,1.2-1.2,2-1.7,2c-0.9,0-2.9-2.5-2.9-10v-1.3h5.8v1.3c0,0.8,0,1.7-0.1,2.5l-0.1,1.7    l1.7-0.1c5.9-0.4,8.8-1.8,11.7-3.1c3.2-1.4,6.2-2.8,13.3-2.8h0.2c7.1,0,10.1,1.4,13.3,2.8c2.9,1.3,5.9,2.7,11.7,3.1l1.7,0.1    l-0.1-1.7c-0.1-0.8-0.1-1.6-0.1-2.5v-1.3h5.8V34.7z M94.2,27.7H64.8c-0.9,0-1.6-0.7-1.6-1.6s0.7-1.6,1.6-1.6h29.5    c0.9,0,1.6,0.7,1.6,1.6S95.1,27.7,94.2,27.7z"></path><path d="M70.1,48.3c-0.1-0.1-0.2-0.1-0.3-0.2c-1.8-1.6-4.6-1.5-6.3,0.3c-0.8,0.9-1.2,2-1.2,3.2s0.5,2.3,1.4,3.1    c0.2,0.2,0.4,0.3,0.5,0.3c2.9,1.3,12.2,7.1,9.6,25.4c-0.2,1.2,0.1,2.4,0.9,3.3s1.8,1.6,3,1.8c0.2,0,0.4,0,0.6,0    c2.2,0,4.1-1.7,4.5-3.9C85,66.3,80.5,54.4,70.1,48.3z M79.9,81.3c-0.1,0.8-0.8,1.4-1.7,1.3c-0.4-0.1-0.7-0.3-1-0.6    c-0.2-0.3-0.3-0.7-0.3-1.1c2.8-20-7.5-26.7-11.2-28.5c-0.2-0.3-0.3-0.6-0.3-0.9c0-0.4,0.1-0.8,0.4-1.1c0.6-0.6,1.5-0.6,2.1-0.1    c0.2,0.2,0.4,0.3,0.7,0.5C77.9,56.3,81.9,67.2,79.9,81.3z"></path><path d="M30.9,48.1c-0.1,0-0.2,0.1-0.3,0.2c-10.4,6.1-14.9,18-12.7,33.5c0.3,2.2,2.2,3.9,4.5,3.9c0.2,0,0.4,0,0.6,0    c1.2-0.2,2.2-0.8,3-1.8s1-2.1,0.9-3.3c-2.6-18.3,6.7-24.1,9.6-25.4c0.2-0.1,0.3-0.2,0.5-0.3c0.9-0.8,1.4-1.9,1.4-3.1    s-0.4-2.3-1.2-3.2C35.5,46.6,32.7,46.5,30.9,48.1z M35,52.4c-3.5,1.7-14,8.4-11.2,28.5c0.1,0.4,0,0.8-0.3,1.1    c-0.2,0.3-0.6,0.5-1,0.6c-0.8,0.1-1.6-0.5-1.7-1.3c-2-14.1,2-25,11.3-30.5c0.3-0.2,0.5-0.3,0.7-0.5c0.3-0.3,0.7-0.4,1-0.4    c0.4,0,0.8,0.2,1.1,0.5c0.3,0.3,0.4,0.7,0.4,1.1C35.4,51.9,35.2,52.2,35,52.4z"></path></g><g><path d="M31,74.1c4.7,5.6,11.6,8.9,19,8.9s14.2-3.2,19-8.9l-2.7-2.3c-4.1,4.8-10,7.6-16.2,7.6s-12.2-2.8-16.2-7.6L31,74.1z"></path><path d="M36.5,69.6c3.4,4,8.3,6.3,13.5,6.3s10.2-2.3,13.5-6.3l-2.7-2.3c-2.7,3.2-6.7,5.1-10.8,5.1s-8.1-1.8-10.8-5.1L36.5,69.6z"></path><path d="M41.9,65.1c2,2.4,5,3.8,8.1,3.8c3.1,0,6.1-1.4,8.1-3.8l-2.7-2.3c-1.4,1.6-3.3,2.5-5.4,2.5c-2.1,0-4.1-0.9-5.4-2.5    L41.9,65.1z"></path></g></g></svg>